<?xml version="1.0" encoding="utf-8"?>
<!-- Generator: Adobe Illustrator 22.0.1, SVG Export Plug-In . SVG Version: 6.00 Build 0)  -->
<svg version="1.1" xmlns="http://www.w3.org/2000/svg" xmlns:xlink="http://www.w3.org/1999/xlink" x="0px" y="0px"
	 viewBox="0 0 230.9 89.7" style="enable-background:new 0 0 230.9 89.7;" xml:space="preserve">
<style type="text/css">
	.st0{display:none;}
	.st1{display:none;fill:#FFFFFF;}
	.st2{fill:#FFFFFF;}
</style>
<g id="Слой_1" class="st0">
</g>
<g id="Слой_2">
	<g>
		<path class="st1" d="M-3.7-83.8c80,0,160,0,240,0c0,80,0,160,0,240c-80,0-160,0-240,0C-3.7,76.2-3.7-3.8-3.7-83.8z M57.2,62.2
			c-1.8-3-3.5-6.1-6-10.2c0,4.7,0,8,0,11.3c0.2,0,0.4,0,0.7,0c0.3-1.2,0.6-2.5,1.1-4.4C54.7,60.2,56,61.2,57.2,62.2
			c-0.1,0.4-0.1,1.2-0.4,1.3c-5.2,1.1-6.8,3.6-6.2,8.8c0.4,3.2,0.2,6.4,0.3,9.7c0,1,0.2,2,0.4,3.2c1.2-1.7,2.1-2.9,3.4-4.9
			c0.3,2,0.4,2.9,0.6,4.2c0.9-1,1.4-1.4,1.8-2c4.4-6.4,0.5-13.7,2.1-20.4C58.6,62.1,57.9,62.2,57.2,62.2z M217.3,19.2
			c-1.2,0.2-2.4,0.4-4.3,0.8c1.2-1.6,2-2.6,2.4-3.1c-1-0.7-2.6-1.5-2.6-2c1.2-5.8-3-3.5-5.4-3.7c-0.8-0.1-1.6,0.1-2.5,0.1
			c-2.1,0-4.2,0-7.9,0c3.7,2.4,5.4,4.4,2.1,6.7c1.6,1.7,2.9,4.1,4.9,4.9c1.8,0.8,4.3-0.2,7.4-0.5c0.5,0.2,2.3,1,4.1,1.8
			C216.3,22.1,216.8,20.6,217.3,19.2c0.6-0.3,1.3-0.5,0.7-0.3c1.2,2,2.3,4.9,3,4.8c3.3-0.4,7.9,2.8,9.8-2.3c0.5-1.3-0.9-3.3-1.6-5.2
			c-1.3,1.2-2.1,2-2.4,2.3c-2.8-1.2-4.9-2.1-7.1-3c0.1-0.4,0.1-0.9,0.2-1.3c2.4,0,4.7,0,7.1,0c0.1-0.4,0.1-0.7,0.2-1.1
			c-4-0.7-8-1.4-10.9-1.9C216.6,14.3,217,16.8,217.3,19.2z M142.1,3.2c-2.4,0-4.4,0.2-6.4,0c-4.4-0.7-5.9,1.4-6.9,5.5
			c-3.1,12.9-6.9,25.7-10.1,38.6c-0.9,3.7-0.6,7.8-0.9,11.7c2.5,0,4.2,0,6,0c0.2-0.3,0.4-0.6,0.7-0.9c-1.2-0.4-2.3-0.8-3.5-1.2
			c0.6-0.6,1.2-1.3,1.9-1.9c1.2,1.1,2.4,2.3,3.7,3.5c3.1-13.7,6.2-27.5,9.7-42.7c4,15.1,7.6,28.8,11.1,42.2c3.9,0,7.2,0,11.1,0
			C153,39.6,147.6,21.6,142.1,3.2z M173.4,67c9-0.6,10.1,0.3,11.8,9.1c0.8,4.1,1.6,8.3,2.6,13.5c2.5-2,4.2-3.3,6.7-5.2
			c-0.9,1.9-1.3,2.7-1.7,3.6c1.4,0,2.6,0,3.7,0c-2.2-9.5-4.4-18.8-6.7-28.8c5.2-5.3,6.8-16.2,2.7-23.3c-3.3-5.6-9.4-7.2-19.2-5
			c0,3.3,0,6.5,0,9.7c11.2,0.3,13.5,2.1,12.7,9.3c-0.5,4.9-6.9,9-12.5,7.9C173.4,60.7,173.4,63.6,173.4,67z M161.4,28.5
			c0,20.2,0,39.9,0,59.8c2.9,0,5.7,0,8.5,0c0-20.1,0-39.8,0-59.8C167.1,28.5,164.5,28.5,161.4,28.5z M33.3,1.4c0,1.8-0.1,3.4,0,5.1
			c0.2,4.3,1.8,8.9,0.6,12.7c-4.9,15,2,27.3,8.5,40c0.7-19.1,1.4-38.2,2.2-57.7C40.5,1.4,37.3,1.4,33.3,1.4z M13.5,77
			c0-12.5,0.1-25-0.2-37.6c0-1.1-2.2-3-3.4-3.1c-6.4-0.6-8.4,1.3-8.5,7.6c-0.1,2.7-0.2,5.3-0.2,8c0,8.2,0,16.5,0,25.1
			C4.8,77,8.5,77,13.5,77z M207.1,74.7c4.3,0,7.5,0,11.4,0c-1.7-7.3,2.2-14.9-3.3-20.6c5.1-8.4,2.3-17.2,1.8-25.7
			c-2.9,0.1-6.9-0.8-8.1,0.7c-1.4,1.7-0.5,5.3-0.7,8.1c0,0.6-0.7,1.3-0.6,1.8c0.4,2.3,1,4.5,1.6,6.7c-0.2-0.1-0.3-0.2-0.5-0.3
			C208.2,55,207.6,64.7,207.1,74.7z M43.5,68.2c-6.6-14.2-13.1-28.1-19.6-41.9c-3.6,1.1-6.6,2.1-9.8,3.1c5,10.4,10.1,20.8,15.1,31.3
			C33.2,69,33.2,69,43.5,68.2z M114.9,39.8c-7-1.9-11.2-0.3-13.9,6.5c-3.6,8.9-8.3,17.4-12.6,26c-0.8,1.7-1.6,3.5-2.5,5.4
			c9.7,1.3,9.7,1.2,13.5-6.4c1.5-3,3-5.9,4.5-8.9C107.5,55,111.2,47.4,114.9,39.8z M22.1,23.6c-2.3-5.3-4.4-10.1-6.6-14.8
			C11.8,0.6,11,0.2,1.1,2.5c3.9,7.1,7.7,14,11.5,20.9c0.4-0.2,0.8-0.4,1.2-0.7c-0.5,0.8-0.9,1.5-2,3.3C16,25,18.9,24.3,22.1,23.6z
			 M81.8,28.6c-7.1,0.4-13.6,0.8-20,1.1c0,3.8,0,7.5,0,11.5c7-0.4,13.5-0.8,20-1.2C81.8,36.1,81.8,32.7,81.8,28.6z M81.6,56.9
			c0.3-0.5,0.6-1,0.9-1.6c-1.4-0.7-2.8-2-4.2-2c-3.7,0-7.4,0.9-11,0.8c-4.4-0.1-5.5,2.9-5.6,5.9c-0.1,3.4,2.4,5.5,5.9,5.5
			c3.6,0,7.3-0.1,10.9-0.5c1.3-0.2,3.3-1.4,3.4-2.4c0.3-1.6,1.6-4.7-2.4-4.5c-1,0-2-0.7-3-1.1c0.5-0.5,0.9-1,1.4-1.6
			C79,56,80.3,56.5,81.6,56.9z M81.2,78.4c-4.4,0-9.4,0-14.4,0c-3.2,0-5.6,0.1-2.5,4.1c0.7,0.9,0.6,2.5,0.9,3.8
			c0.5,1.9,3.1,2.7,4.7,1.6c1.3-0.9,2.6-1.7,4.5-2.9c-0.5,1.9-0.8,3.3-1.1,4.6c2.9,0,5.6,0,7.9,0C81.2,85.7,81.2,82.3,81.2,78.4z
			 M93.8,58.2c1.6-3.8,3.5-6.7,4-9.8c0.4-2.6-0.2-6.8-1.9-7.9c-2.4-1.6-6.2-0.9-10.3-1.3C88.5,46.1,91,51.8,93.8,58.2z M59,29.3
			c-6.5-1.3-4.2,4.8-6.3,7.1c-1.1,1.1-1.6,4,1.3,5.1c0.6,0.2,1,1.3,1.2,2c0.7,2.6,1.3,5.3,2.1,8.8c-2.6,3.3-2.5,3.4,1.8,5.7
			C59,48.4,59,39,59,29.3z M107.8,60.3c-1.5,3.9-2.6,6.8-3.7,9.7c-0.2,0.5-0.6,0.8-0.7,1.3c-1.1,5.5,3.5,8,12.2,6.2
			C113.1,72,110.6,66.6,107.8,60.3z M133.6,35.6c-0.5,3.4-1,6.3-1.5,9.3c3.7,0,6.7,0,9.9,0c-0.7-3.3-1.4-6.3-2.1-9.3
			C137.7,35.6,135.9,35.6,133.6,35.6z M2.2,28.8c0.4,0.3,0.7,0.6,1.1,0.9c1.6-1.6,4.9-3.6,4.6-4.8c-0.9-4.1-3-7.8-4.7-11.7
			c-0.4,0.1-0.7,0.3-1.1,0.4C2.2,18.7,2.2,23.7,2.2,28.8z M12.6,32.9c-5.5-3.2-8.5-1.7-12.1,2.8C5,34.6,8.2,33.9,12.6,32.9z"/>
		<path class="st2" d="M142.1,3.2c5.5,18.4,10.9,36.3,16.5,54.8c-3.9,0-7.3,0-11.1,0c-3.5-13.5-7.1-27.2-11.1-42.2
			c-3.5,15.2-6.6,29-9.7,42.7c-1.3-1.2-2.5-2.4-3.7-3.5c-0.6,0.6-1.2,1.3-1.9,1.9c1.2,0.4,2.3,0.8,3.5,1.2c-0.2,0.3-0.4,0.6-0.7,0.9
			c-1.7,0-3.5,0-6,0c0.3-4,0-8,0.9-11.7c3.2-12.9,7-25.7,10.1-38.6c1-4.1,2.5-6.2,6.9-5.5C137.7,3.5,139.7,3.2,142.1,3.2z"/>
		<path class="st2" d="M173.4,67c0-3.3,0-6.3,0-9.3c5.6,1,12-3,12.5-7.9c0.8-7.3-1.5-9-12.7-9.3c0-3.2,0-6.4,0-9.7
			c9.8-2.2,16-0.6,19.2,5c4.1,7.1,2.5,17.9-2.7,23.3c2.3,10,4.5,19.4,6.7,28.8c-1.1,0-2.3,0-3.7,0c0.4-0.9,0.8-1.7,1.7-3.6
			c-2.5,2-4.1,3.2-6.7,5.2c-1-5.2-1.8-9.3-2.6-13.5C183.5,67.2,182.4,66.4,173.4,67z"/>
		<path class="st2" d="M161.4,28.5c3.1,0,5.7,0,8.5,0c0,20,0,39.7,0,59.8c-2.8,0-5.6,0-8.5,0C161.4,68.4,161.4,48.7,161.4,28.5z"/>
		<path class="st2" d="M33.3,1.4c4,0,7.1,0,11.3,0c-0.7,19.5-1.5,38.6-2.2,57.7c-6.6-12.6-13.4-24.9-8.5-40
			c1.2-3.8-0.3-8.4-0.6-12.7C33.3,4.9,33.3,3.3,33.3,1.4z"/>
		<path class="st2" d="M13.5,77c-5,0-8.8,0-12.4,0c0-8.7,0-16.9,0-25.1c0-2.7,0.1-5.3,0.2-8c0.2-6.3,2.1-8.2,8.5-7.6
			c1.3,0.1,3.4,2,3.4,3.1C13.6,52,13.5,64.5,13.5,77z"/>
		<path class="st2" d="M207.1,74.7c0.5-10,1.1-19.7,1.6-29.3c0.2,0.1,0.3,0.2,0.5,0.3c-0.5-2.2-1.2-4.4-1.6-6.7
			c-0.1-0.6,0.6-1.2,0.6-1.8c0.2-2.8-0.7-6.5,0.7-8.1c1.2-1.4,5.1-0.5,8.1-0.7c0.5,8.6,3.2,17.3-1.8,25.7c5.5,5.6,1.5,13.3,3.3,20.6
			C214.6,74.7,211.4,74.7,207.1,74.7z"/>
		<path class="st2" d="M43.5,68.2C33.2,69,33.2,69,29.2,60.6c-5-10.4-10.1-20.9-15.1-31.3c3.2-1,6.2-2,9.8-3.1
			C30.4,40.1,36.9,54.1,43.5,68.2z"/>
		<path class="st2" d="M114.9,39.8c-3.7,7.6-7.4,15.1-11.1,22.7c-1.5,3-3,5.9-4.5,8.9c-3.8,7.7-3.8,7.7-13.5,6.4
			c0.9-1.9,1.7-3.7,2.5-5.4c4.2-8.7,9-17.1,12.6-26C103.7,39.6,107.9,37.9,114.9,39.8z"/>
		<path class="st2" d="M22.1,23.6C18.9,24.3,16,25,11.9,26c1-1.8,1.5-2.6,2-3.3c-0.4,0.2-0.8,0.4-1.2,0.7C8.8,16.5,5,9.6,1.1,2.5
			C11,0.2,11.8,0.6,15.5,8.8C17.7,13.5,19.8,18.3,22.1,23.6z"/>
		<path class="st2" d="M81.8,28.6c0,4,0,7.4,0,11.4c-6.6,0.4-13.1,0.8-20,1.2c0-4,0-7.7,0-11.5C68.3,29.4,74.7,29,81.8,28.6z"/>
		<path class="st2" d="M81.6,56.9c-1.3-0.5-2.5-0.9-3.8-1.4c-0.5,0.5-0.9,1-1.4,1.6c1,0.4,2,1.2,3,1.1c4-0.2,2.7,2.9,2.4,4.5
			c-0.2,1-2.1,2.2-3.4,2.4c-3.6,0.4-7.2,0.5-10.9,0.5c-3.5,0-6-2.1-5.9-5.5c0.1-3,1.2-6.1,5.6-5.9c3.7,0.1,7.3-0.8,11-0.8
			c1.4,0,2.8,1.3,4.2,2C82.2,55.9,81.9,56.4,81.6,56.9z"/>
		<path class="st2" d="M81.2,78.4c0,3.8,0,7.3,0,11.1c-2.3,0-5,0-7.9,0c0.3-1.3,0.6-2.7,1.1-4.6c-1.9,1.2-3.3,2-4.5,2.9
			c-1.6,1.1-4.2,0.4-4.7-1.6c-0.3-1.3-0.2-2.9-0.9-3.8c-3.1-3.9-0.7-4.1,2.5-4.1C71.8,78.5,76.7,78.4,81.2,78.4z"/>
		<path class="st2" d="M217.2,19.1c-0.5,1.5-0.9,2.9-1.6,5.1c-1.8-0.8-3.6-1.5-4.1-1.8c-3.2,0.3-5.7,1.2-7.4,0.5
			c-2-0.8-3.3-3.2-4.9-4.9c3.3-2.3,1.6-4.3-2.1-6.7c3.6,0,5.8,0,7.9,0c0.8,0,1.6-0.1,2.5-0.1c2.4,0.2,6.6-2.1,5.4,3.7
			c-0.1,0.4,1.6,1.2,2.6,2c-0.4,0.5-1.1,1.5-2.4,3.1C214.9,19.7,216.1,19.4,217.2,19.1L217.2,19.1z"/>
		<path class="st2" d="M57.2,62.2c0.7-0.1,1.4-0.1,2-0.2c-1.6,6.7,2.3,14-2.1,20.4c-0.4,0.5-0.9,1-1.8,2c-0.2-1.3-0.3-2.1-0.6-4.2
			c-1.4,1.9-2.2,3.1-3.4,4.9c-0.2-1.2-0.3-2.2-0.4-3.2c-0.1-3.2,0.1-6.5-0.3-9.7c-0.6-5.2,1-7.6,6.2-8.8
			C57.1,63.4,57.2,62.6,57.2,62.2L57.2,62.2z"/>
		<path class="st2" d="M93.8,58.2c-2.8-6.4-5.2-12.1-8.3-19.1c4.1,0.4,7.9-0.3,10.3,1.3c1.7,1.1,2.2,5.3,1.9,7.9
			C97.3,51.5,95.4,54.4,93.8,58.2z"/>
		<path class="st2" d="M59,29.3c0,9.7,0,19.1,0,28.7c-4.3-2.3-4.3-2.4-1.8-5.7c-0.8-3.5-1.4-6.2-2.1-8.8c-0.2-0.7-0.6-1.7-1.2-2
			c-2.9-1.2-2.4-4-1.3-5.1C54.8,34.1,52.5,28.1,59,29.3z"/>
		<path class="st2" d="M217.3,19.2c-0.3-2.5-0.7-4.9-1.1-8.1c2.9,0.5,6.9,1.2,10.9,1.9c-0.1,0.4-0.1,0.7-0.2,1.1c-2.4,0-4.7,0-7.1,0
			c-0.1,0.4-0.1,0.9-0.2,1.3c2.2,0.9,4.3,1.9,7.1,3c0.3-0.3,1.1-1,2.4-2.3c0.6,2,2.1,3.9,1.6,5.2c-1.9,5.1-6.4,2-9.8,2.3
			c-0.7,0.1-1.8-2.8-3-4.8C218.6,18.8,217.9,18.9,217.3,19.2C217.2,19.1,217.3,19.2,217.3,19.2z"/>
		<path class="st2" d="M107.8,60.3c2.9,6.3,5.3,11.7,7.7,17.2c-8.6,1.7-13.3-0.8-12.2-6.2c0.1-0.5,0.5-0.8,0.7-1.3
			C105.2,67.1,106.3,64.2,107.8,60.3z"/>
		<path class="st2" d="M133.6,35.6c2.3,0,4.1,0,6.3,0c0.7,3,1.3,6,2.1,9.3c-3.2,0-6.2,0-9.9,0C132.6,42,133,39,133.6,35.6z"/>
		<path class="st2" d="M2.2,28.8c0-5.1,0-10.1,0-15.2c0.4-0.1,0.7-0.3,1.1-0.4c1.7,3.9,3.8,7.7,4.7,11.7c0.3,1.2-3,3.2-4.6,4.8
			C3,29.4,2.6,29.1,2.2,28.8z"/>
		<path class="st2" d="M57.3,62.1c-1.3-1-2.6-2-4.3-3.3c-0.5,2-0.8,3.2-1.1,4.4c-0.2,0-0.4,0-0.7,0c0-3.3,0-6.6,0-11.3
			C53.7,56.2,55.5,59.2,57.3,62.1C57.2,62.2,57.3,62.1,57.3,62.1z"/>
		<path class="st2" d="M12.6,32.9c-4.4,1-7.6,1.8-12.1,2.8C4.1,31.2,7.1,29.7,12.6,32.9z"/>
	</g>
</g>
</svg>
