<svg id="Слой_2" data-name="Слой 2" xmlns="http://www.w3.org/2000/svg" viewBox="0 0 1093.64 1279.18"><defs><style>.cls-1{fill:none;stroke:#e6e6e6;stroke-miterlimit:10;stroke-width:55px;}.cls-2{opacity:0.21;}.cls-3{fill:#1616a8;}</style></defs><title>logo</title><rect class="cls-1" x="1312.85" y="818" width="1115.36" height="871.91" rx="136.85" ry="136.85" transform="translate(-1079.31 2197.47) rotate(-77.61)"/><g class="cls-2"><path d="M2174.35,1489.57c3-84.08-4.73-207.16-15.31-340.74a264.16,264.16,0,0,1,4.5-74.84c4.18-20,2.88-33.41-1.28-43.44-9.34-15.39-31.2-24.17-53.1-24.47-25-.35-50.16,10.41-56.6,35.11-22.6,107-60.86,195.91-116,265.32-3.26,4.11-10.51,2.36-11.73-2.77l-8-33.47-61.36-258.49c-5.55-23.39-7.17-47.41-2.88-70.57,3.06-16.53.27-29.23-7-39-11.9-8.32-25.44-11.21-38.77-10.57-31.12,1.51-61.17,22.64-66.8,41.69-17.16,26.55-142,456.72-122.35,510.08,1.07,2.91,2.56,4.77,4.53,5.31,42.23,11.48,76.29,6.57,98.82-38.43,13.68-37.26,25.36-81.54,35.74-130.38q5.91-27.83,11.32-57.47c.81-4.47,7.77-4.49,9.06,0,30.15,104.7,53.16,214,66.57,329.45,2.3,14.61,7.41,25.09,14.6,32.15,17.86,17.53,48.94,13.34,84.61-5.61,23.56-13.06,20.8-53.13,16.68-74.21-1.44-16.35,6.42-42.66,21.4-75.12l36-64.45,24.29-43.46c2-3.55,7.83-2.53,8.71,1.51,13.64,63,1.37,220.87,6.64,235.19a24.47,24.47,0,0,0,5,8.25C2086.65,1593.73,2174.68,1569.94,2174.35,1489.57Z" transform="translate(-1323.71 -614.37)"/></g><path class="cls-3" d="M2092,1500.17c3-84.08-4.73-207.16-15.31-340.74a263.8,263.8,0,0,1,4.51-74.84c4.17-20,2.87-33.41-1.29-43.44-9.34-15.39-31.2-24.17-53.1-24.47-25-.35-50.16,10.41-56.6,35.11-22.6,107-60.86,195.9-116,265.32-3.26,4.11-10.51,2.36-11.73-2.78l-8-33.46-61.36-258.49c-5.55-23.39-7.17-47.41-2.88-70.57,3.06-16.53.27-29.24-7-39-11.9-8.32-25.44-11.21-38.77-10.57-31.12,1.51-61.17,22.64-66.8,41.69-17.16,26.55-142,456.71-122.35,510.07,1.07,2.92,2.56,4.78,4.53,5.31,42.23,11.49,76.29,6.58,98.82-38.42,13.68-37.26,25.36-81.55,35.74-130.38q5.91-27.82,11.32-57.47c.81-4.47,7.77-4.49,9.06,0,30.15,104.7,53.16,214,66.57,329.45,2.3,14.61,7.41,25.09,14.6,32.15,17.86,17.53,48.94,13.34,84.61-5.61,23.56-13.06,20.8-53.13,16.68-74.21-1.44-16.35,6.42-42.66,21.4-75.12l36-64.46,24.29-43.45c2-3.55,7.83-2.53,8.71,1.51,13.64,63,1.37,220.87,6.64,235.19a24.67,24.67,0,0,0,5,8.25C2004.32,1604.33,2092.35,1580.54,2092,1500.17Z" transform="translate(-1323.71 -614.37)"/></svg>