<?xml version="1.0" encoding="utf-8"?>
<!-- Generator: Adobe Illustrator 22.0.1, SVG Export Plug-In . SVG Version: 6.00 Build 0)  -->
<svg version="1.1" id="Слой_1" xmlns="http://www.w3.org/2000/svg" xmlns:xlink="http://www.w3.org/1999/xlink" x="0px" y="0px"
	 viewBox="0 0 462 370" style="enable-background:new 0 0 462 370;" xml:space="preserve">
<style type="text/css">
	.st0{display:none;fill:#FFFFFF;}
	.st1{fill:#DEA816;}
	.st2{display:none;fill:#CC3333;}
</style>
<g>
	<path class="st0" d="M-54-10c192.7,0,385.3,0,578,0c0,126.7,0,253.3,0,380c-192.7,0-385.3,0-578,0C-54,243.3-54,116.7-54-10z
		 M122.5,362.1c2-0.7,5.6-1.5,8.8-3c64.2-31.8,128.3-63.7,192.4-95.6c35.2-17.5,70.4-35,105.6-52.4c14-6.9,17-16,9.7-29.7
		c-5.2-9.7-10.5-19.3-15.8-28.9c-24.1-44-48-88-72.2-131.9c-6.1-11.1-16.7-14.2-28.1-8.6c-9.3,4.5-18.5,9.2-27.7,13.8
		c-52.2,26-104.3,52-156.5,77.9c-38.2,19-76.4,37.9-114.5,56.9c-13.7,6.8-16.4,16-9,29.5c17.5,32,35,64,52.5,96
		c11.5,21,23.1,42,34.5,63.1C106.2,356.8,112,361.4,122.5,362.1z"/>
	<path class="st1" d="M122.5,362.1c-10.5-0.7-16.3-5.3-20.5-13C90.7,328,79.1,307,67.6,286c-17.5-32-35-64-52.5-96
		c-7.4-13.5-4.7-22.7,9-29.5c38.1-19.1,76.3-37.9,114.5-56.9c52.2-26,104.3-52,156.5-77.9c9.2-4.6,18.4-9.3,27.7-13.8
		c11.4-5.6,22-2.5,28.1,8.6c24.1,43.9,48.1,87.9,72.2,131.9c5.3,9.6,10.6,19.2,15.8,28.9c7.3,13.8,4.3,22.8-9.7,29.7
		c-35.2,17.5-70.4,34.9-105.6,52.4c-64.1,31.9-128.2,63.8-192.4,95.6C128.1,360.6,124.5,361.4,122.5,362.1z M423.7,193
		c-30.4-55.5-60.3-110.3-90.6-165.5C232.1,77.7,131.4,127.8,30.4,178c30.4,55.6,60.4,110.4,90.5,165.5
		C222.1,293.2,322.5,243.3,423.7,193z"/>
	<path class="st2" d="M423.7,193c-101.2,50.3-201.6,100.3-302.8,150.6c-30.1-55.1-60.1-110-90.5-165.5
		c101-50.2,201.7-100.3,302.8-150.6C363.3,82.7,393.3,137.4,423.7,193z M183.4,241.2c22-0.1,40-12.9,44-30.1c2.9-12.8-2-23.9-9-34.2
		c-16.4-24.2-52.8-23.8-68.6,0.9c-9.1,14.2-5.9,28.4,2,41.9C159.5,232.7,170.3,240.9,183.4,241.2z M286.8,163.2c0,1.5-0.1,2.6,0,3.8
		c1.1,9.4-1.7,15.4-8.6,19c-7.7,4-16.4,3-22.7-3c-7.4-7.1-12.3-15.7-14.2-25.8c-1.4-7.5,1.8-14.3,8.3-18.3
		c6.8-4.2,13.7-4.6,20.6-0.1c1.2,0.8,2.4,1.7,3.7,2.6c4.1-3.4,8-6.6,12-9.9c-0.9-1.1-1.3-1.6-1.7-2.1c-9.4-8.6-20.3-10.4-32-6.4
		c-13.2,4.4-23.3,12.3-26.3,26.7c-2.9,13.8,2.5,25.6,10.3,36.4c14.9,20.7,43.8,22.1,60.6,2.9c7.2-8.1,8.6-17.6,5.5-28.4
		C296.9,161.4,291.9,162.3,286.8,163.2z M281.6,109.2c1.5,2.8,2.7,4.8,3.6,6.9c1.6,4,3.6,4.7,7.5,2.4c5.4-3.1,11.2-5.6,17.1-8.5
		c10.7,19.5,21.1,38.4,31.8,57.9c5-2.5,9.6-4.7,14.6-7.2c-10.8-19.7-21.2-38.8-31.8-58c7.5-3.8,14.4-7.3,21.6-10.9
		c-2.3-4.1-4.2-7.5-6.4-11.4C320.2,90.1,301.2,99.5,281.6,109.2z M131,271.9c-10.7-19.6-21.1-38.6-31.8-58.1
		c11.9-6,23.3-11.7,34.8-17.5c-2.3-4.1-4.2-7.6-6.3-11.5c-16.7,8.3-32.9,16.4-49.6,24.6c12.9,23.6,25.5,46.4,38.2,69.7
		C121.3,276.7,125.7,274.5,131,271.9z"/>
	<path class="st1" d="M183.4,241.2c-13-0.3-23.9-8.4-31.5-21.5c-8-13.6-11.2-27.7-2-41.9c15.8-24.7,52.2-25.1,68.6-0.9
		c7,10.3,11.9,21.4,9,34.2C223.4,228.2,205.4,241.1,183.4,241.2z M188.1,226.7c13.4,0,24.1-9.8,23.4-21c-0.8-12-6.2-22.2-16.2-29.1
		c-12.5-8.6-31.9-0.2-34.1,14.3c-1.9,12.7,9.5,31,21.8,34.7C185,226.4,187.2,226.6,188.1,226.7z"/>
	<path class="st1" d="M286.8,163.2c5.1-0.9,10.1-1.8,15.5-2.8c3,10.8,1.6,20.3-5.5,28.4c-16.9,19.1-45.7,17.7-60.6-2.9
		c-7.8-10.8-13.1-22.6-10.3-36.4c3-14.4,13.1-22.3,26.3-26.7c11.8-3.9,22.7-2.1,32,6.4c0.5,0.4,0.8,1,1.7,2.1c-4,3.3-7.9,6.5-12,9.9
		c-1.3-0.9-2.5-1.8-3.7-2.6c-6.9-4.6-13.8-4.2-20.6,0.1c-6.5,4-9.7,10.8-8.3,18.3c1.9,10.1,6.9,18.7,14.2,25.8c6.3,6.1,15,7,22.7,3
		c7-3.6,9.7-9.6,8.6-19C286.7,165.8,286.8,164.7,286.8,163.2z"/>
	<path class="st1" d="M281.6,109.2c19.6-9.7,38.6-19.1,58-28.7c2.2,3.9,4.1,7.3,6.4,11.4c-7.2,3.6-14,7.1-21.6,10.9
		c10.5,19.3,21,38.3,31.8,58c-5,2.5-9.6,4.8-14.6,7.2c-10.7-19.5-21.1-38.4-31.8-57.9c-5.9,2.9-11.7,5.3-17.1,8.5
		c-3.9,2.3-6,1.6-7.5-2.4C284.4,114.1,283.1,112.1,281.6,109.2z"/>
	<path class="st1" d="M131,271.9c-5.3,2.6-9.7,4.8-14.6,7.2c-12.8-23.2-25.3-46.1-38.2-69.7c16.6-8.3,32.9-16.3,49.6-24.6
		c2.2,3.9,4.1,7.4,6.3,11.5c-11.6,5.8-22.9,11.5-34.8,17.5C109.9,233.3,120.3,252.4,131,271.9z"/>
	<path class="st2" d="M188.1,226.7c-0.9-0.2-3.1-0.4-5.1-1c-12.3-3.8-23.8-22-21.8-34.7c2.2-14.5,21.6-22.9,34.1-14.3
		c10,6.9,15.4,17,16.2,29.1C212.2,216.9,201.4,226.7,188.1,226.7z"/>
</g>
</svg>
